<svg xmlns="http://www.w3.org/2000/svg" viewBox="0 0 93.84 39.45"><defs><style>.cls-1{fill:#1d1d1b;}</style></defs><g id="Ebene_2" data-name="Ebene 2"><g id="Ebene_1-2" data-name="Ebene 1"><path class="cls-1" d="M10.24,13.15A25.07,25.07,0,0,1,0,10.87a10.22,10.22,0,0,0,20.4,0A25,25,0,0,1,10.24,13.15Z"/><path class="cls-1" d="M20.42,9.8A10.22,10.22,0,0,0,0,9.77,23.38,23.38,0,0,0,20.42,9.8Z"/><path class="cls-1" d="M35.91,0A10.21,10.21,0,1,0,46.12,10.21,10.21,10.21,0,0,0,35.91,0ZM27.05,10.73v-.09a19.55,19.55,0,0,1,17.72,0v.09A19.55,19.55,0,0,1,27.05,10.73Z"/><path class="cls-1" d="M61.6,0A10.21,10.21,0,1,0,71.82,10.21,10.21,10.21,0,0,0,61.6,0Zm0,15.54a5.33,5.33,0,1,1,5.34-5.33A5.33,5.33,0,0,1,61.6,15.54Z"/><path class="cls-1" d="M1.28,36.31a2.48,2.48,0,0,1-.41-1.63A3.88,3.88,0,0,1,1,33.41a1.19,1.19,0,0,1,.54-.66,2.46,2.46,0,0,1,1.09-.2c.42,0,1,0,1.69.05v-.44A4,4,0,0,0,4.24,31a.64.64,0,0,0-.4-.44,3.5,3.5,0,0,0-1-.1,14.27,14.27,0,0,0-1.67.13v-1a9.28,9.28,0,0,1,2-.21,3.62,3.62,0,0,1,1.51.25,1.33,1.33,0,0,1,.69.84,6,6,0,0,1,.18,1.68v4.48H4.47l-.06-.93H4.32a1.28,1.28,0,0,1-.65.84,2.44,2.44,0,0,1-1,.21A1.74,1.74,0,0,1,1.28,36.31Zm2.47-.68a.72.72,0,0,0,.39-.41,3.54,3.54,0,0,0,.21-1.37v-.43H3a1.43,1.43,0,0,0-.58.08.48.48,0,0,0-.26.32,2.81,2.81,0,0,0-.07.76,2.29,2.29,0,0,0,.08.73.52.52,0,0,0,.28.33,1.76,1.76,0,0,0,.65.09A1.91,1.91,0,0,0,3.75,35.63Z"/><path class="cls-1" d="M10.15,29.52h1.12l.05,1.29h.09a1.8,1.8,0,0,1,.63-1.1,2,2,0,0,1,1.16-.3v1.26a1.89,1.89,0,0,0-1.09.27,1.47,1.47,0,0,0-.55.86,5.83,5.83,0,0,0-.17,1.55v3.31H10.15Z"/><path class="cls-1" d="M17.26,39.32v-1l.74,0h.9A2.56,2.56,0,0,0,20,38.22a.93.93,0,0,0,.44-.65,7.7,7.7,0,0,0,.1-1.52v-.28h-.08a1.26,1.26,0,0,1-.57.73,2.13,2.13,0,0,1-1,.21,2,2,0,0,1-1.2-.31,1.8,1.8,0,0,1-.58-1.08A11.34,11.34,0,0,1,17,33.08a11.73,11.73,0,0,1,.17-2.28,1.8,1.8,0,0,1,.58-1.08,2,2,0,0,1,1.2-.31,2.12,2.12,0,0,1,1,.23,1.34,1.34,0,0,1,.63.84h.08l.06-1h1.13v6.15a11.4,11.4,0,0,1-.17,2.27,1.77,1.77,0,0,1-.73,1.14,3.27,3.27,0,0,1-1.76.37A12.94,12.94,0,0,1,17.26,39.32Zm2.84-3.89a1,1,0,0,0,.34-.61,9.05,9.05,0,0,0,.12-1.74,10,10,0,0,0-.09-1.64,1.22,1.22,0,0,0-.35-.71,1.16,1.16,0,0,0-.73-.2,1.59,1.59,0,0,0-.81.16,1,1,0,0,0-.31.67,13.62,13.62,0,0,0-.07,1.72,13.64,13.64,0,0,0,.07,1.71,1,1,0,0,0,.32.66,1.48,1.48,0,0,0,.8.16A1.2,1.2,0,0,0,20.1,35.43Z"/><path class="cls-1" d="M27,36.47a1.41,1.41,0,0,1-.65-1,13.07,13.07,0,0,1-.15-2.36,13,13,0,0,1,.15-2.35,1.43,1.43,0,0,1,.65-1,3.45,3.45,0,0,1,1.66-.3,3.42,3.42,0,0,1,1.66.3,1.47,1.47,0,0,1,.66,1,13,13,0,0,1,.15,2.35A13.07,13.07,0,0,1,31,35.45a1.45,1.45,0,0,1-.66,1,3.29,3.29,0,0,1-1.66.31A3.32,3.32,0,0,1,27,36.47Zm2.51-.92a1,1,0,0,0,.31-.68,17.53,17.53,0,0,0,.06-1.78,17.43,17.43,0,0,0-.06-1.77.93.93,0,0,0-.31-.68,1.49,1.49,0,0,0-.85-.18,1.47,1.47,0,0,0-.85.18.92.92,0,0,0-.3.67,16.69,16.69,0,0,0-.07,1.78,16.78,16.78,0,0,0,.07,1.79.94.94,0,0,0,.3.67,1.47,1.47,0,0,0,.85.18A1.49,1.49,0,0,0,29.49,35.55Z"/><path class="cls-1" d="M36.26,36.72c-.37,0-.69-.08-.95-.13v-1a11.16,11.16,0,0,0,1.77.13,2,2,0,0,0,.75-.11.66.66,0,0,0,.33-.33,2,2,0,0,0,.07-.61,2.78,2.78,0,0,0,0-.67.37.37,0,0,0-.17-.26,1.71,1.71,0,0,0-.44-.11l-1.34-.19a1.1,1.1,0,0,1-.85-.53,3,3,0,0,1-.24-1.42,2,2,0,0,1,.57-1.66,2.72,2.72,0,0,1,1.68-.44,8,8,0,0,1,1,.06,4.79,4.79,0,0,1,.79.14v1a8.64,8.64,0,0,0-1.64-.14,1.48,1.48,0,0,0-.88.2,1,1,0,0,0-.25.82,2.87,2.87,0,0,0,.05.61.39.39,0,0,0,.17.26,1.15,1.15,0,0,0,.4.11l1.23.17a1.56,1.56,0,0,1,.69.23,1.11,1.11,0,0,1,.4.59,4,4,0,0,1,.14,1.19,2.15,2.15,0,0,1-.52,1.68,2.41,2.41,0,0,1-1.65.47A9.55,9.55,0,0,1,36.26,36.72Z"/><path class="cls-1" d="M44.23,29.44h1.68a3.08,3.08,0,0,1,1.47.26,1.31,1.31,0,0,1,.57,1,14.39,14.39,0,0,1,.14,2.38A14.22,14.22,0,0,1,48,35.43a1.29,1.29,0,0,1-.57,1,3,3,0,0,1-1.47.26H44.23Zm1.64,6.67A2.72,2.72,0,0,0,47,36c.2-.1.33-.36.4-.76a16.21,16.21,0,0,0,.1-2.14,14.27,14.27,0,0,0-.11-2.14,1,1,0,0,0-.4-.76A2.7,2.7,0,0,0,45.87,30h-1v6.11Z"/><path class="cls-1" d="M51.69,36.66V29.44h3.36V30H52.32v2.74h2.37v.54H52.32v2.83h2.73v.55Z"/><path class="cls-1" d="M58.45,36.66V29.44h.63V36.1H61.5v.56Z"/><path class="cls-1" d="M64.69,36.66V29.44h.6v7.22Z"/><path class="cls-1" d="M70.37,36.66l-1.89-7.22h.64l1.62,6.33h.06l1.62-6.33H73l-1.89,7.22Z"/><path class="cls-1" d="M76.17,36.66V29.44h3.36V30H76.8v2.74h2.38v.54H76.8v2.83h2.73v.55Z"/><path class="cls-1" d="M86.21,36.66l-.94-3H83.55v3h-.61V29.44h2.18a1.79,1.79,0,0,1,1.08.27,1.21,1.21,0,0,1,.46.72,5.69,5.69,0,0,1,.1,1.13,4.25,4.25,0,0,1-.17,1.31,1.07,1.07,0,0,1-.72.7l1,3.09ZM85.74,33a.77.77,0,0,0,.32-.5,4.07,4.07,0,0,0,.08-.9,5,5,0,0,0-.07-.9.82.82,0,0,0-.31-.49A1.31,1.31,0,0,0,85,30H83.55v3.14H85A1.3,1.3,0,0,0,85.74,33Z"/><path class="cls-1" d="M91.32,36.66V33.82l-1.89-4.38h.65l1.54,3.61h.06l1.53-3.61h.63l-1.9,4.38v2.84Z"/></g></g></svg>